<svg xmlns="http://www.w3.org/2000/svg" xmlns:xlink="http://www.w3.org/1999/xlink" width="500" zoomAndPan="magnify" viewBox="0 0 375 374.999991" height="500" preserveAspectRatio="xMidYMid meet" version="1.0"><defs><g/><clipPath id="de97449ac6"><path d="M 97.4375 80.839844 L 277.449219 80.839844 L 277.449219 338.457031 L 97.4375 338.457031 Z M 97.4375 80.839844 " clip-rule="nonzero"/></clipPath><clipPath id="944eb715f9"><path d="M 102.210938 85.785156 L 272.789062 85.785156 L 272.789062 333.222656 L 102.210938 333.222656 Z M 102.210938 85.785156 " clip-rule="nonzero"/></clipPath><clipPath id="4ae7a5c401"><path d="M 159.101562 90.710938 C 167.816406 87.734375 177.789062 85.785156 187.546875 85.785156 C 197.304688 85.785156 206.695312 87.457031 215.347656 90.429688 C 215.53125 90.523438 215.714844 90.523438 215.898438 90.617188 C 248.394531 102.511719 272.328125 133.925781 272.789062 171.46875 L 272.789062 333.222656 L 102.210938 333.222656 L 102.210938 171.585938 C 102.671875 133.738281 126.238281 102.328125 159.101562 90.710938 Z M 159.101562 90.710938 " clip-rule="nonzero"/></clipPath><clipPath id="3e4658fd1e"><path d="M 201 215.621094 L 212 215.621094 L 212 223 L 201 223 Z M 201 215.621094 " clip-rule="nonzero"/></clipPath><clipPath id="007f6f4819"><path d="M 207 265 L 248 265 L 248 332.425781 L 207 332.425781 Z M 207 265 " clip-rule="nonzero"/></clipPath><clipPath id="52eaca39c3"><path d="M 218 266 L 258.886719 266 L 258.886719 287 L 218 287 Z M 218 266 " clip-rule="nonzero"/></clipPath><clipPath id="15da24c7ac"><path d="M 128 262 L 219 262 L 219 332.425781 L 128 332.425781 Z M 128 262 " clip-rule="nonzero"/></clipPath><clipPath id="f2b8ada8ef"><path d="M 128 275 L 197 275 L 197 332.425781 L 128 332.425781 Z M 128 275 " clip-rule="nonzero"/></clipPath><clipPath id="69d2a64915"><path d="M 116.476562 262 L 219 262 L 219 286 L 116.476562 286 Z M 116.476562 262 " clip-rule="nonzero"/></clipPath><clipPath id="85237f69b5"><path d="M 128 282 L 191 282 L 191 332.425781 L 128 332.425781 Z M 128 282 " clip-rule="nonzero"/></clipPath><clipPath id="aeefa2562b"><path d="M 148.605469 36.835938 L 226.65625 36.835938 L 226.65625 114.886719 L 148.605469 114.886719 Z M 148.605469 36.835938 " clip-rule="nonzero"/></clipPath><clipPath id="7bc93c7a50"><path d="M 187.628906 36.835938 C 185.066406 36.835938 182.53125 37.085938 180.015625 37.585938 C 177.503906 38.085938 175.0625 38.824219 172.695312 39.804688 C 170.328125 40.785156 168.078125 41.988281 165.949219 43.414062 C 163.816406 44.835938 161.847656 46.453125 160.035156 48.265625 C 158.222656 50.078125 156.605469 52.050781 155.179688 54.179688 C 153.757812 56.308594 152.554688 58.558594 151.574219 60.925781 C 150.59375 63.292969 149.855469 65.734375 149.355469 68.246094 C 148.855469 70.761719 148.605469 73.296875 148.605469 75.859375 C 148.605469 78.421875 148.855469 80.960938 149.355469 83.476562 C 149.855469 85.988281 150.59375 88.429688 151.574219 90.796875 C 152.554688 93.164062 153.757812 95.414062 155.179688 97.542969 C 156.605469 99.671875 158.222656 101.644531 160.035156 103.457031 C 161.847656 105.269531 163.816406 106.886719 165.949219 108.308594 C 168.078125 109.734375 170.328125 110.9375 172.695312 111.917969 C 175.0625 112.898438 177.503906 113.636719 180.015625 114.136719 C 182.53125 114.636719 185.066406 114.886719 187.628906 114.886719 C 190.191406 114.886719 192.730469 114.636719 195.242188 114.136719 C 197.757812 113.636719 200.199219 112.898438 202.566406 111.917969 C 204.933594 110.9375 207.179688 109.734375 209.3125 108.308594 C 211.441406 106.886719 213.414062 105.269531 215.226562 103.457031 C 217.039062 101.644531 218.65625 99.671875 220.078125 97.542969 C 221.503906 95.414062 222.703125 93.164062 223.683594 90.796875 C 224.664062 88.429688 225.40625 85.988281 225.90625 83.476562 C 226.40625 80.960938 226.65625 78.421875 226.65625 75.859375 C 226.65625 73.296875 226.40625 70.761719 225.90625 68.246094 C 225.40625 65.734375 224.664062 63.292969 223.683594 60.925781 C 222.703125 58.558594 221.503906 56.308594 220.078125 54.179688 C 218.65625 52.050781 217.039062 50.078125 215.226562 48.265625 C 213.414062 46.453125 211.441406 44.835938 209.3125 43.414062 C 207.179688 41.988281 204.933594 40.785156 202.566406 39.804688 C 200.199219 38.824219 197.757812 38.085938 195.242188 37.585938 C 192.730469 37.085938 190.191406 36.835938 187.628906 36.835938 Z M 187.628906 36.835938 " clip-rule="nonzero"/></clipPath><clipPath id="232ca1d70b"><path d="M 155.003906 43.234375 L 220.253906 43.234375 L 220.253906 108.488281 L 155.003906 108.488281 Z M 155.003906 43.234375 " clip-rule="nonzero"/></clipPath><clipPath id="88d60536fe"><path d="M 187.628906 43.359375 C 185.496094 43.359375 183.382812 43.570312 181.289062 43.984375 C 179.195312 44.402344 177.164062 45.019531 175.191406 45.835938 C 173.222656 46.652344 171.347656 47.652344 169.574219 48.839844 C 167.800781 50.023438 166.15625 51.371094 164.648438 52.878906 C 163.140625 54.390625 161.792969 56.03125 160.605469 57.804688 C 159.421875 59.578125 158.421875 61.453125 157.605469 63.421875 C 156.785156 65.394531 156.171875 67.425781 155.753906 69.519531 C 155.335938 71.613281 155.128906 73.726562 155.128906 75.859375 C 155.128906 77.996094 155.335938 80.109375 155.753906 82.203125 C 156.171875 84.292969 156.785156 86.328125 157.605469 88.296875 C 158.421875 90.269531 159.421875 92.144531 160.605469 93.917969 C 161.792969 95.691406 163.140625 97.332031 164.648438 98.84375 C 166.15625 100.351562 167.800781 101.699219 169.574219 102.882812 C 171.347656 104.070312 173.222656 105.070312 175.191406 105.886719 C 177.164062 106.703125 179.195312 107.320312 181.289062 107.738281 C 183.382812 108.152344 185.496094 108.363281 187.628906 108.363281 C 189.765625 108.363281 191.878906 108.152344 193.972656 107.738281 C 196.0625 107.320312 198.097656 106.703125 200.066406 105.886719 C 202.039062 105.070312 203.914062 104.070312 205.6875 102.882812 C 207.460938 101.699219 209.101562 100.351562 210.613281 98.84375 C 212.121094 97.332031 213.46875 95.691406 214.652344 93.917969 C 215.839844 92.144531 216.839844 90.269531 217.65625 88.296875 C 218.472656 86.328125 219.089844 84.292969 219.507812 82.203125 C 219.921875 80.109375 220.128906 77.996094 220.128906 75.859375 C 220.128906 73.726562 219.921875 71.613281 219.507812 69.519531 C 219.089844 67.425781 218.472656 65.394531 217.65625 63.421875 C 216.839844 61.453125 215.839844 59.578125 214.652344 57.804688 C 213.46875 56.03125 212.121094 54.390625 210.613281 52.878906 C 209.101562 51.371094 207.460938 50.023438 205.6875 48.839844 C 203.914062 47.652344 202.039062 46.652344 200.066406 45.835938 C 198.097656 45.019531 196.0625 44.402344 193.972656 43.984375 C 191.878906 43.570312 189.765625 43.359375 187.628906 43.359375 Z M 187.628906 43.359375 " clip-rule="nonzero"/></clipPath></defs><g clip-path="url(#de97449ac6)"><path fill="#0b3005" d="M 277.511719 338.015625 L 97.4375 338.015625 L 97.4375 171.046875 C 97.4375 121.375 137.828125 80.984375 187.5 80.984375 C 237.171875 80.984375 277.5625 121.375 277.5625 171.046875 L 277.5625 338.015625 Z M 99.476562 335.972656 L 275.46875 335.972656 L 275.46875 171.046875 C 275.46875 122.496094 235.996094 83.023438 187.5 83.023438 C 138.949219 83.023438 99.476562 122.496094 99.476562 171.046875 Z M 99.476562 335.972656 " fill-opacity="1" fill-rule="nonzero"/></g><g clip-path="url(#944eb715f9)"><g clip-path="url(#4ae7a5c401)"><path fill="#0b3005" d="M 102.210938 85.785156 L 272.789062 85.785156 L 272.789062 333.222656 L 102.210938 333.222656 Z M 102.210938 85.785156 " fill-opacity="1" fill-rule="nonzero"/></g></g><g fill="#eef8eb" fill-opacity="1"><g transform="translate(146.480668, 187.574506)"><g><path d="M 37.546875 0 L 35.578125 -24.75 L 35.328125 -24.75 L 26.765625 -0.25 L 21.109375 -0.25 L 12.546875 -24.75 L 12.296875 -24.75 L 10.328125 0 L 0.8125 0 L 4.5625 -41.75 L 14.671875 -41.75 L 23.9375 -17.65625 L 33.203125 -41.75 L 43.328125 -41.75 L 47.0625 0 Z M 37.546875 0 "/></g></g></g><g fill="#eef8eb" fill-opacity="1"><g transform="translate(199.058569, 187.574506)"><g><path d="M 26.921875 -41.75 L 26.921875 -33.40625 L 12.546875 -33.40625 L 12.546875 -25.109375 L 26.3125 -25.109375 L 26.3125 -16.75 L 12.546875 -16.75 L 12.546875 -8.34375 L 26.921875 -8.34375 L 26.921875 0 L 3.03125 0 L 3.03125 -41.75 Z M 26.921875 -41.75 "/></g></g></g><path fill="#bfeaed" d="M 168.050781 265.972656 L 169.902344 243.503906 L 177.882812 234.753906 L 168.023438 223.121094 C 168.023438 223.121094 171.792969 221.554688 173.824219 220.929688 C 175.855469 220.308594 179.546875 220.664062 180.214844 220.339844 C 180.878906 220.019531 184.082031 218.851562 184.582031 218.632812 C 185.085938 218.410156 189.109375 220.480469 189.109375 220.480469 L 184.03125 233.402344 L 195.140625 240.5625 C 195.140625 240.5625 198.25 259.179688 198.46875 259.683594 C 198.691406 260.183594 179.375 278.960938 178.828125 278.722656 C 178.285156 278.488281 168.050781 265.972656 168.050781 265.972656 " fill-opacity="1" fill-rule="nonzero"/><path fill="#ca3d40" d="M 157.386719 288.710938 L 128.160156 256.554688 L 154.75 231.835938 L 178.886719 267.734375 L 157.386719 288.710938 " fill-opacity="1" fill-rule="nonzero"/><path fill="#f0b156" d="M 219.597656 230.25 C 208.488281 225.730469 209.550781 220.21875 209.550781 220.21875 L 207.066406 220.316406 L 205.941406 220.359375 L 203.457031 220.453125 C 203.457031 220.453125 204.9375 225.867188 194.210938 231.226562 C 183.484375 236.585938 189.792969 263.945312 189.792969 263.945312 L 208.042969 274.992188 L 208.074219 275.734375 L 208.621094 275.34375 L 209.199219 275.691406 L 209.171875 274.949219 L 226.519531 262.53125 C 226.519531 262.53125 230.703125 234.765625 219.597656 230.25 " fill-opacity="1" fill-rule="nonzero"/><path fill="#2e5d46" d="M 190.183594 277.5 C 190.511719 276.96875 203.863281 234.871094 215.648438 235.722656 C 227.148438 236.558594 211.238281 270.785156 206.730469 279.464844 C 202.222656 288.144531 190.183594 277.5 190.183594 277.5 " fill-opacity="1" fill-rule="nonzero"/><g clip-path="url(#3e4658fd1e)"><path fill="#2e5d46" d="M 210.230469 222.539062 L 202.957031 222.816406 C 202.183594 222.847656 201.523438 222.238281 201.496094 221.464844 L 201.335938 217.390625 C 201.308594 216.617188 201.914062 215.957031 202.691406 215.929688 L 209.964844 215.648438 C 210.738281 215.617188 211.398438 216.226562 211.425781 217 L 211.582031 221.074219 C 211.613281 221.851562 211.003906 222.507812 210.230469 222.539062 " fill-opacity="1" fill-rule="nonzero"/></g><path fill="#527aab" d="M 235.636719 286.664062 L 211.417969 273.273438 L 231.941406 236.128906 L 256.164062 249.519531 L 235.636719 286.664062 " fill-opacity="1" fill-rule="nonzero"/><path fill="#57a541" d="M 174.492188 236.054688 C 174.101562 234.617188 173.515625 232.972656 172.097656 232.527344 C 171.671875 232.394531 171.207031 232.390625 170.785156 232.242188 C 169.804688 231.902344 169.253906 230.894531 168.574219 230.113281 C 167.382812 228.746094 165.558594 227.953125 163.75 228.019531 C 163.488281 228.027344 163.207031 228.0625 163.011719 228.234375 C 162.578125 228.609375 162.824219 229.316406 163.148438 229.792969 C 164.015625 231.058594 165.214844 232.054688 166.234375 233.207031 C 168.929688 236.257812 170.226562 240.261719 171.457031 244.144531 C 169.367188 242.671875 167.941406 240.464844 166.230469 238.566406 C 164.519531 236.667969 162.238281 234.964844 159.6875 235.078125 C 159.453125 235.089844 159.210938 235.121094 159.015625 235.246094 C 158.527344 235.5625 158.570312 236.304688 158.816406 236.828125 C 159.464844 238.214844 160.957031 238.945312 162.167969 239.882812 C 162.386719 240.054688 162.621094 240.273438 162.628906 240.554688 C 162.648438 241.25 161.53125 241.203125 161.007812 241.660156 C 160.5625 242.050781 160.636719 242.800781 161.007812 243.261719 C 161.378906 243.71875 161.949219 243.957031 162.496094 244.175781 C 163.917969 244.75 165.339844 245.320312 166.761719 245.894531 C 167.027344 246 167.316406 246.128906 167.449219 246.382812 C 167.679688 246.832031 167.234375 247.386719 166.738281 247.484375 C 166.242188 247.578125 165.742188 247.375 165.261719 247.214844 C 163.382812 246.578125 161.3125 246.527344 159.402344 247.070312 C 159.128906 247.148438 158.839844 247.253906 158.675781 247.488281 C 158.242188 248.113281 159.058594 248.855469 159.765625 249.136719 C 162.714844 250.3125 166.027344 250.542969 169.109375 249.78125 C 169.527344 249.679688 169.957031 249.558594 170.386719 249.605469 C 170.800781 249.65625 171.179688 249.859375 171.546875 250.0625 C 173.738281 251.269531 175.949219 252.753906 178.253906 253.695312 C 179.882812 251.414062 177.929688 248.671875 177.289062 246.339844 C 176.347656 242.910156 175.425781 239.480469 174.492188 236.054688 " fill-opacity="1" fill-rule="nonzero"/><path fill="#e55b3a" d="M 170.789062 253.984375 C 170.789062 253.984375 174.574219 246.789062 179.78125 246.761719 C 184.988281 246.734375 199.851562 274.058594 199.851562 274.058594 L 194.546875 276 C 194.546875 276 174.21875 261.917969 170.789062 253.984375 " fill-opacity="1" fill-rule="nonzero"/><g clip-path="url(#007f6f4819)"><path fill="#90aebf" d="M 245.441406 332.425781 L 247.941406 267.308594 L 209.753906 265.839844 L 207.191406 332.425781 L 245.441406 332.425781 " fill-opacity="1" fill-rule="nonzero"/></g><g clip-path="url(#52eaca39c3)"><path fill="#b0c2d1" d="M 218.375 266.171875 L 227.742188 286.738281 L 258.878906 285.183594 L 247.941406 267.308594 L 218.375 266.171875 " fill-opacity="1" fill-rule="nonzero"/></g><g clip-path="url(#15da24c7ac)"><path fill="#b0c2d1" d="M 215.828125 332.425781 L 218.375 266.171875 L 130.835938 262.804688 L 128.167969 332.191406 L 134.296875 332.425781 L 215.828125 332.425781 " fill-opacity="1" fill-rule="nonzero"/></g><g clip-path="url(#f2b8ada8ef)"><path fill="#ffffff" d="M 147.710938 332.425781 L 196.191406 302.757812 L 177.652344 275.917969 L 129.195312 305.230469 L 128.15625 332.183594 L 134.480469 332.425781 L 147.710938 332.425781 " fill-opacity="1" fill-rule="nonzero"/></g><g clip-path="url(#69d2a64915)"><path fill="#cbdff1" d="M 218.375 266.171875 L 204.917969 285.183594 L 116.488281 279.597656 L 130.835938 262.804688 L 218.375 266.171875 " fill-opacity="1" fill-rule="nonzero"/></g><g clip-path="url(#85237f69b5)"><path fill="#90aebf" d="M 186.605469 300.019531 L 138.355469 332.425781 L 142.691406 332.425781 L 190.011719 300.65625 L 176.933594 282.03125 L 128.996094 310.34375 L 128.886719 313.21875 L 176.230469 285.242188 L 186.605469 300.019531 " fill-opacity="1" fill-rule="nonzero"/></g><g clip-path="url(#aeefa2562b)"><g clip-path="url(#7bc93c7a50)"><path fill="#f3f8ed" d="M 148.605469 36.835938 L 226.65625 36.835938 L 226.65625 114.886719 L 148.605469 114.886719 Z M 148.605469 36.835938 " fill-opacity="1" fill-rule="nonzero"/></g></g><g clip-path="url(#232ca1d70b)"><g clip-path="url(#88d60536fe)"><path fill="#0b3005" d="M 148.605469 36.835938 L 226.65625 36.835938 L 226.65625 114.886719 L 148.605469 114.886719 Z M 148.605469 36.835938 " fill-opacity="1" fill-rule="nonzero"/></g></g></svg>