<svg xmlns="http://www.w3.org/2000/svg" xmlns:xlink="http://www.w3.org/1999/xlink" width="500" zoomAndPan="magnify" viewBox="0 0 375 374.999991" height="500" preserveAspectRatio="xMidYMid meet" version="1.0"><defs><g/><clipPath id="133a323979"><path d="M 99.167969 97.738281 L 278.691406 97.738281 L 278.691406 277.261719 L 99.167969 277.261719 Z M 99.167969 97.738281 " clip-rule="nonzero"/></clipPath><clipPath id="fc30accb5a"><path d="M 188.929688 97.738281 C 185.992188 97.738281 183.058594 97.882812 180.132812 98.171875 C 177.207031 98.457031 174.300781 98.890625 171.417969 99.460938 C 168.535156 100.035156 165.6875 100.75 162.875 101.601562 C 160.0625 102.457031 157.296875 103.445312 154.582031 104.570312 C 151.863281 105.695312 149.210938 106.949219 146.617188 108.335938 C 144.023438 109.722656 141.507812 111.230469 139.0625 112.867188 C 136.617188 114.5 134.257812 116.246094 131.988281 118.113281 C 129.714844 119.976562 127.539062 121.949219 125.460938 124.027344 C 123.378906 126.105469 121.410156 128.28125 119.542969 130.554688 C 117.679688 132.828125 115.929688 135.1875 114.296875 137.628906 C 112.664062 140.074219 111.152344 142.59375 109.769531 145.1875 C 108.382812 147.777344 107.125 150.433594 106 153.148438 C 104.875 155.867188 103.886719 158.628906 103.035156 161.445312 C 102.179688 164.257812 101.46875 167.105469 100.894531 169.988281 C 100.320312 172.871094 99.890625 175.777344 99.601562 178.703125 C 99.3125 181.628906 99.167969 184.558594 99.167969 187.5 C 99.167969 190.441406 99.3125 193.371094 99.601562 196.296875 C 99.890625 199.222656 100.320312 202.128906 100.894531 205.011719 C 101.46875 207.894531 102.179688 210.742188 103.035156 213.554688 C 103.886719 216.371094 104.875 219.132812 106 221.851562 C 107.125 224.566406 108.382812 227.222656 109.769531 229.8125 C 111.152344 232.40625 112.664062 234.925781 114.296875 237.371094 C 115.929688 239.8125 117.679688 242.171875 119.542969 244.445312 C 121.410156 246.71875 123.378906 248.894531 125.460938 250.972656 C 127.539062 253.050781 129.714844 255.023438 131.988281 256.886719 C 134.257812 258.753906 136.617188 260.5 139.0625 262.132812 C 141.507812 263.769531 144.023438 265.277344 146.617188 266.664062 C 149.210938 268.050781 151.863281 269.304688 154.582031 270.429688 C 157.296875 271.554688 160.0625 272.542969 162.875 273.398438 C 165.6875 274.25 168.535156 274.964844 171.417969 275.539062 C 174.300781 276.109375 177.207031 276.542969 180.132812 276.828125 C 183.058594 277.117188 185.992188 277.261719 188.929688 277.261719 C 191.871094 277.261719 194.804688 277.117188 197.730469 276.828125 C 200.65625 276.542969 203.558594 276.109375 206.441406 275.539062 C 209.324219 274.964844 212.175781 274.25 214.988281 273.398438 C 217.800781 272.542969 220.566406 271.554688 223.28125 270.429688 C 225.996094 269.304688 228.652344 268.050781 231.246094 266.664062 C 233.835938 265.277344 236.355469 263.769531 238.800781 262.132812 C 241.246094 260.5 243.601562 258.753906 245.875 256.886719 C 248.148438 255.023438 250.324219 253.050781 252.402344 250.972656 C 254.480469 248.894531 256.453125 246.71875 258.316406 244.445312 C 260.183594 242.171875 261.933594 239.8125 263.566406 237.371094 C 265.199219 234.925781 266.707031 232.40625 268.09375 229.8125 C 269.480469 227.222656 270.734375 224.566406 271.859375 221.851562 C 272.984375 219.132812 273.976562 216.371094 274.828125 213.554688 C 275.679688 210.742188 276.394531 207.894531 276.96875 205.011719 C 277.542969 202.128906 277.972656 199.222656 278.261719 196.296875 C 278.550781 193.371094 278.691406 190.441406 278.691406 187.5 C 278.691406 184.558594 278.550781 181.628906 278.261719 178.703125 C 277.972656 175.777344 277.542969 172.871094 276.96875 169.988281 C 276.394531 167.105469 275.679688 164.257812 274.828125 161.445312 C 273.976562 158.628906 272.984375 155.867188 271.859375 153.148438 C 270.734375 150.433594 269.480469 147.777344 268.09375 145.1875 C 266.707031 142.59375 265.199219 140.074219 263.566406 137.628906 C 261.933594 135.1875 260.183594 132.828125 258.316406 130.554688 C 256.453125 128.28125 254.480469 126.105469 252.402344 124.027344 C 250.324219 121.949219 248.148438 119.976562 245.875 118.113281 C 243.601562 116.246094 241.246094 114.5 238.800781 112.867188 C 236.355469 111.230469 233.835938 109.722656 231.246094 108.335938 C 228.652344 106.949219 225.996094 105.695312 223.28125 104.570312 C 220.566406 103.445312 217.800781 102.457031 214.988281 101.601562 C 212.175781 100.75 209.324219 100.035156 206.441406 99.460938 C 203.558594 98.890625 200.65625 98.457031 197.730469 98.171875 C 194.804688 97.882812 191.871094 97.738281 188.929688 97.738281 Z M 188.929688 97.738281 " clip-rule="nonzero"/></clipPath><clipPath id="b42a939b82"><path d="M 114 112.457031 L 263.972656 112.457031 L 263.972656 262.542969 L 114 262.542969 Z M 114 112.457031 " clip-rule="nonzero"/></clipPath><clipPath id="71f8f334dd"><path d="M 188.929688 112.746094 C 186.484375 112.746094 184.039062 112.867188 181.605469 113.105469 C 179.167969 113.347656 176.75 113.703125 174.347656 114.183594 C 171.945312 114.660156 169.574219 115.253906 167.230469 115.964844 C 164.886719 116.675781 162.585938 117.5 160.324219 118.4375 C 158.0625 119.375 155.851562 120.417969 153.691406 121.574219 C 151.53125 122.726562 149.4375 123.984375 147.398438 125.34375 C 145.363281 126.703125 143.398438 128.160156 141.507812 129.714844 C 139.613281 131.269531 137.804688 132.910156 136.070312 134.640625 C 134.339844 136.371094 132.699219 138.183594 131.144531 140.078125 C 129.59375 141.96875 128.136719 143.933594 126.773438 145.96875 C 125.414062 148.003906 124.15625 150.101562 123.003906 152.261719 C 121.851562 154.421875 120.804688 156.632812 119.867188 158.894531 C 118.929688 161.15625 118.105469 163.457031 117.394531 165.800781 C 116.683594 168.144531 116.089844 170.515625 115.613281 172.917969 C 115.136719 175.316406 114.777344 177.734375 114.535156 180.171875 C 114.296875 182.609375 114.175781 185.050781 114.175781 187.5 C 114.175781 189.949219 114.296875 192.390625 114.535156 194.828125 C 114.777344 197.261719 115.136719 199.683594 115.613281 202.082031 C 116.089844 204.484375 116.683594 206.855469 117.394531 209.199219 C 118.105469 211.542969 118.929688 213.84375 119.867188 216.105469 C 120.804688 218.367188 121.851562 220.578125 123.003906 222.738281 C 124.15625 224.898438 125.414062 226.996094 126.773438 229.03125 C 128.136719 231.066406 129.59375 233.03125 131.144531 234.921875 C 132.699219 236.816406 134.339844 238.628906 136.070312 240.359375 C 137.804688 242.089844 139.613281 243.730469 141.507812 245.285156 C 143.398438 246.839844 145.363281 248.296875 147.398438 249.65625 C 149.4375 251.015625 151.53125 252.273438 153.691406 253.425781 C 155.851562 254.582031 158.0625 255.625 160.324219 256.5625 C 162.585938 257.5 164.886719 258.324219 167.230469 259.035156 C 169.574219 259.746094 171.945312 260.339844 174.347656 260.816406 C 176.75 261.296875 179.167969 261.652344 181.605469 261.894531 C 184.039062 262.132812 186.484375 262.253906 188.929688 262.253906 C 191.378906 262.253906 193.820312 262.132812 196.257812 261.894531 C 198.695312 261.652344 201.113281 261.296875 203.515625 260.816406 C 205.914062 260.339844 208.289062 259.746094 210.632812 259.035156 C 212.972656 258.324219 215.277344 257.5 217.539062 256.5625 C 219.800781 255.625 222.011719 254.582031 224.167969 253.425781 C 226.328125 252.273438 228.425781 251.015625 230.460938 249.65625 C 232.496094 248.296875 234.460938 246.839844 236.355469 245.285156 C 238.246094 243.730469 240.058594 242.089844 241.789062 240.359375 C 243.519531 238.628906 245.164062 236.816406 246.714844 234.921875 C 248.269531 233.03125 249.726562 231.066406 251.085938 229.03125 C 252.445312 226.996094 253.703125 224.898438 254.859375 222.738281 C 256.011719 220.578125 257.058594 218.367188 257.996094 216.105469 C 258.929688 213.84375 259.753906 211.542969 260.464844 209.199219 C 261.175781 206.855469 261.769531 204.484375 262.25 202.082031 C 262.726562 199.683594 263.085938 197.261719 263.324219 194.828125 C 263.566406 192.390625 263.683594 189.949219 263.683594 187.5 C 263.683594 185.050781 263.566406 182.609375 263.324219 180.171875 C 263.085938 177.734375 262.726562 175.316406 262.25 172.917969 C 261.769531 170.515625 261.175781 168.144531 260.464844 165.800781 C 259.753906 163.457031 258.929688 161.15625 257.996094 158.894531 C 257.058594 156.632812 256.011719 154.421875 254.859375 152.261719 C 253.703125 150.101562 252.445312 148.003906 251.085938 145.96875 C 249.726562 143.933594 248.269531 141.96875 246.714844 140.078125 C 245.164062 138.183594 243.519531 136.371094 241.789062 134.640625 C 240.058594 132.910156 238.246094 131.269531 236.355469 129.714844 C 234.460938 128.160156 232.496094 126.703125 230.460938 125.34375 C 228.425781 123.984375 226.328125 122.726562 224.167969 121.574219 C 222.011719 120.417969 219.800781 119.375 217.539062 118.4375 C 215.277344 117.5 212.972656 116.675781 210.632812 115.964844 C 208.289062 115.253906 205.914062 114.660156 203.515625 114.183594 C 201.113281 113.703125 198.695312 113.347656 196.257812 113.105469 C 193.820312 112.867188 191.378906 112.746094 188.929688 112.746094 Z M 188.929688 112.746094 " clip-rule="nonzero"/></clipPath></defs><g clip-path="url(#133a323979)"><g clip-path="url(#fc30accb5a)"><path fill="#f3f8ed" d="M 99.167969 97.738281 L 278.691406 97.738281 L 278.691406 277.261719 L 99.167969 277.261719 Z M 99.167969 97.738281 " fill-opacity="1" fill-rule="nonzero"/></g></g><g clip-path="url(#b42a939b82)"><g clip-path="url(#71f8f334dd)"><path fill="#0b3005" d="M 99.167969 97.738281 L 278.691406 97.738281 L 278.691406 277.261719 L 99.167969 277.261719 Z M 99.167969 97.738281 " fill-opacity="1" fill-rule="nonzero"/></g></g><g fill="#eef8eb" fill-opacity="1"><g transform="translate(148.552411, 206.633731)"><g><path d="M 42.125 0 L 39.90625 -27.765625 L 39.625 -27.765625 L 30.03125 -0.28125 L 23.671875 -0.28125 L 14.078125 -27.765625 L 13.796875 -27.765625 L 11.578125 0 L 0.90625 0 L 5.109375 -46.828125 L 16.46875 -46.828125 L 26.84375 -19.8125 L 37.234375 -46.828125 L 48.59375 -46.828125 L 52.796875 0 Z M 42.125 0 "/></g></g></g><g fill="#eef8eb" fill-opacity="1"><g transform="translate(194.062028, 206.633731)"><g><path d="M 30.203125 -46.828125 L 30.203125 -37.46875 L 14.078125 -37.46875 L 14.078125 -28.15625 L 29.515625 -28.15625 L 29.515625 -18.796875 L 14.078125 -18.796875 L 14.078125 -9.359375 L 30.203125 -9.359375 L 30.203125 0 L 3.40625 0 L 3.40625 -46.828125 Z M 30.203125 -46.828125 "/></g></g></g></svg>