<svg xmlns="http://www.w3.org/2000/svg" xmlns:xlink="http://www.w3.org/1999/xlink" width="1584" zoomAndPan="magnify" viewBox="0 0 1188 296.999993" height="396" preserveAspectRatio="xMidYMid meet" version="1.0"><defs><g/><clipPath id="3456700803"><path d="M 945 4.65625 L 957 4.65625 L 957 13 L 945 13 Z M 945 4.65625 " clip-rule="nonzero"/></clipPath><clipPath id="7f50e90488"><path d="M 951 57 L 995 57 L 995 128.40625 L 951 128.40625 Z M 951 57 " clip-rule="nonzero"/></clipPath><clipPath id="9cf05693da"><path d="M 963 58 L 1006.46875 58 L 1006.46875 80 L 963 80 Z M 963 58 " clip-rule="nonzero"/></clipPath><clipPath id="0cfcda3e05"><path d="M 868 54 L 964 54 L 964 128.40625 L 868 128.40625 Z M 868 54 " clip-rule="nonzero"/></clipPath><clipPath id="1c615952f0"><path d="M 868 68 L 941 68 L 941 128.40625 L 868 128.40625 Z M 868 68 " clip-rule="nonzero"/></clipPath><clipPath id="e9bbb7f6cd"><path d="M 855.71875 54 L 964 54 L 964 79 L 855.71875 79 Z M 855.71875 54 " clip-rule="nonzero"/></clipPath><clipPath id="03638c9ecc"><path d="M 868 75 L 934 75 L 934 128.40625 L 868 128.40625 Z M 868 75 " clip-rule="nonzero"/></clipPath></defs><path fill="#bfeaed" d="M 910.308594 58 L 912.273438 34.195312 L 920.722656 24.925781 L 910.28125 12.601562 C 910.28125 12.601562 914.269531 10.945312 916.421875 10.285156 C 918.574219 9.625 922.480469 10 923.1875 9.660156 C 923.890625 9.316406 927.28125 8.082031 927.8125 7.847656 C 928.34375 7.613281 932.601562 9.804688 932.601562 9.804688 L 927.226562 23.496094 L 938.988281 31.078125 C 938.988281 31.078125 942.277344 50.804688 942.511719 51.335938 C 942.746094 51.871094 922.296875 71.761719 921.722656 71.511719 C 921.144531 71.261719 910.308594 58 910.308594 58 " fill-opacity="1" fill-rule="nonzero"/><path fill="#ca3d40" d="M 899.023438 82.09375 L 868.082031 48.023438 L 896.230469 21.835938 L 921.785156 59.867188 L 899.023438 82.09375 " fill-opacity="1" fill-rule="nonzero"/><path fill="#f0b156" d="M 964.875 20.15625 C 953.117188 15.367188 954.242188 9.53125 954.242188 9.53125 L 951.613281 9.632812 L 950.421875 9.679688 L 947.792969 9.777344 C 947.792969 9.777344 949.359375 15.511719 938.003906 21.191406 C 926.648438 26.871094 933.324219 55.855469 933.324219 55.855469 L 952.648438 67.558594 L 952.675781 68.34375 L 953.257812 67.929688 L 953.871094 68.296875 L 953.839844 67.511719 L 972.203125 54.355469 C 972.203125 54.355469 976.632812 24.941406 964.875 20.15625 " fill-opacity="1" fill-rule="nonzero"/><path fill="#2e5d46" d="M 933.742188 70.214844 C 934.085938 69.648438 948.222656 25.054688 960.695312 25.957031 C 972.871094 26.839844 956.03125 63.101562 951.257812 72.296875 C 946.484375 81.492188 933.742188 70.214844 933.742188 70.214844 " fill-opacity="1" fill-rule="nonzero"/><g clip-path="url(#3456700803)"><path fill="#2e5d46" d="M 954.960938 11.984375 L 947.261719 12.28125 C 946.441406 12.3125 945.746094 11.667969 945.714844 10.847656 L 945.546875 6.53125 C 945.515625 5.710938 946.160156 5.015625 946.980469 4.984375 L 954.679688 4.6875 C 955.5 4.65625 956.195312 5.300781 956.226562 6.121094 L 956.394531 10.4375 C 956.425781 11.257812 955.78125 11.953125 954.960938 11.984375 " fill-opacity="1" fill-rule="nonzero"/></g><path fill="#527aab" d="M 981.855469 79.925781 L 956.21875 65.738281 L 977.945312 26.382812 L 1003.585938 40.570312 L 981.855469 79.925781 " fill-opacity="1" fill-rule="nonzero"/><path fill="#57a541" d="M 917.128906 26.304688 C 916.71875 24.785156 916.097656 23.039062 914.597656 22.570312 C 914.144531 22.425781 913.652344 22.425781 913.207031 22.269531 C 912.167969 21.90625 911.585938 20.839844 910.863281 20.011719 C 909.605469 18.5625 907.675781 17.726562 905.757812 17.792969 C 905.480469 17.800781 905.1875 17.835938 904.976562 18.019531 C 904.519531 18.417969 904.78125 19.167969 905.121094 19.671875 C 906.039062 21.011719 907.3125 22.066406 908.386719 23.289062 C 911.242188 26.519531 912.613281 30.761719 913.914062 34.875 C 911.703125 33.316406 910.195312 30.976562 908.382812 28.964844 C 906.574219 26.953125 904.160156 25.148438 901.460938 25.273438 C 901.210938 25.285156 900.953125 25.316406 900.746094 25.449219 C 900.230469 25.785156 900.277344 26.570312 900.539062 27.125 C 901.222656 28.59375 902.804688 29.371094 904.082031 30.363281 C 904.316406 30.546875 904.566406 30.773438 904.574219 31.074219 C 904.59375 31.808594 903.410156 31.761719 902.855469 32.246094 C 902.382812 32.65625 902.464844 33.453125 902.855469 33.941406 C 903.246094 34.425781 903.851562 34.679688 904.429688 34.910156 C 905.9375 35.515625 907.441406 36.125 908.949219 36.730469 C 909.230469 36.84375 909.535156 36.976562 909.671875 37.246094 C 909.917969 37.726562 909.449219 38.3125 908.921875 38.414062 C 908.394531 38.515625 907.867188 38.300781 907.359375 38.128906 C 905.371094 37.453125 903.175781 37.402344 901.160156 37.976562 C 900.867188 38.058594 900.558594 38.167969 900.386719 38.417969 C 899.929688 39.082031 900.792969 39.867188 901.542969 40.167969 C 904.664062 41.414062 908.171875 41.65625 911.433594 40.851562 C 911.875 40.742188 912.328125 40.609375 912.78125 40.664062 C 913.222656 40.714844 913.625 40.933594 914.011719 41.148438 C 916.332031 42.425781 918.671875 43.996094 921.113281 44.996094 C 922.839844 42.582031 920.769531 39.671875 920.089844 37.203125 C 919.097656 33.570312 918.117188 29.9375 917.128906 26.304688 " fill-opacity="1" fill-rule="nonzero"/><path fill="#e55b3a" d="M 913.210938 45.300781 C 913.210938 45.300781 917.21875 37.675781 922.730469 37.648438 C 928.238281 37.617188 943.976562 66.570312 943.976562 66.570312 L 938.359375 68.625 C 938.359375 68.625 916.84375 53.707031 913.210938 45.300781 " fill-opacity="1" fill-rule="nonzero"/><g clip-path="url(#7f50e90488)"><path fill="#90aebf" d="M 992.230469 128.40625 L 994.882812 59.417969 L 954.457031 57.863281 L 951.746094 128.40625 L 992.230469 128.40625 " fill-opacity="1" fill-rule="nonzero"/></g><g clip-path="url(#9cf05693da)"><path fill="#b0c2d1" d="M 963.585938 58.214844 L 973.496094 80 L 1006.457031 78.355469 L 994.882812 59.417969 L 963.585938 58.214844 " fill-opacity="1" fill-rule="nonzero"/></g><g clip-path="url(#0cfcda3e05)"><path fill="#b0c2d1" d="M 960.886719 128.40625 L 963.585938 58.214844 L 870.917969 54.644531 L 868.09375 128.15625 L 874.582031 128.40625 L 960.886719 128.40625 " fill-opacity="1" fill-rule="nonzero"/></g><g clip-path="url(#1c615952f0)"><path fill="#ffffff" d="M 888.78125 128.40625 L 940.097656 96.972656 L 920.476562 68.539062 L 869.179688 99.59375 L 868.082031 128.148438 L 874.773438 128.40625 L 888.78125 128.40625 " fill-opacity="1" fill-rule="nonzero"/></g><g clip-path="url(#e9bbb7f6cd)"><path fill="#cbdff1" d="M 963.585938 58.214844 L 949.339844 78.355469 L 855.730469 72.4375 L 870.917969 54.644531 L 963.585938 58.214844 " fill-opacity="1" fill-rule="nonzero"/></g><g clip-path="url(#03638c9ecc)"><path fill="#90aebf" d="M 929.953125 94.070312 L 878.878906 128.40625 L 883.46875 128.40625 L 933.5625 94.75 L 919.714844 75.011719 L 868.972656 105.011719 L 868.855469 108.054688 L 918.96875 78.414062 L 929.953125 94.070312 " fill-opacity="1" fill-rule="nonzero"/></g><g fill="#0b3005" fill-opacity="1"><g transform="translate(187.622931, 257.680457)"><g><path d="M 61.109375 -94.765625 L 61.109375 -75.8125 L 28.484375 -75.8125 L 28.484375 -56.96875 L 59.734375 -56.96875 L 59.734375 -38.015625 L 28.484375 -38.015625 L 28.484375 -18.953125 L 61.109375 -18.953125 L 61.109375 0 L 6.890625 0 L 6.890625 -94.765625 Z M 61.109375 -94.765625 "/></g></g></g><g fill="#0b3005" fill-opacity="1"><g transform="translate(264.900634, 257.680457)"><g><path d="M 28.484375 -58.8125 L 28.484375 0 L 6.890625 0 L 6.890625 -94.765625 L 28.484375 -94.765625 L 66.15625 -35.953125 L 66.390625 -35.953125 L 66.390625 -94.765625 L 87.984375 -94.765625 L 87.984375 0 L 66.390625 0 L 28.71875 -58.8125 Z M 28.484375 -58.8125 "/></g></g></g><g fill="#0b3005" fill-opacity="1"><g transform="translate(370.422806, 257.680457)"><g><path d="M 0.921875 -75.8125 L 0.921875 -94.765625 L 67.53125 -94.765625 L 67.53125 -75.8125 L 45.03125 -75.8125 L 45.03125 0 L 23.4375 0 L 23.4375 -75.8125 Z M 0.921875 -75.8125 "/></g></g></g><g fill="#0b3005" fill-opacity="1"><g transform="translate(449.537569, 257.680457)"><g><path d="M 61.109375 -94.765625 L 61.109375 -75.8125 L 28.484375 -75.8125 L 28.484375 -56.96875 L 59.734375 -56.96875 L 59.734375 -38.015625 L 28.484375 -38.015625 L 28.484375 -18.953125 L 61.109375 -18.953125 L 61.109375 0 L 6.890625 0 L 6.890625 -94.765625 Z M 61.109375 -94.765625 "/></g></g></g><g fill="#0b3005" fill-opacity="1"><g transform="translate(526.815276, 257.680457)"><g><path d="M 6.890625 -94.765625 L 40.78125 -94.765625 C 49.882812 -94.765625 57.304688 -92.332031 63.046875 -87.46875 C 68.796875 -82.601562 71.671875 -75.65625 71.671875 -66.625 C 71.671875 -59.65625 69.925781 -53.8125 66.4375 -49.09375 C 62.957031 -44.382812 58.234375 -41.078125 52.265625 -39.171875 L 84.875 0 L 57.421875 0 L 28.484375 -37.4375 L 28.484375 0 L 6.890625 0 Z M 28.484375 -52.71875 L 31.015625 -52.71875 C 33.003906 -52.71875 34.6875 -52.753906 36.0625 -52.828125 C 37.445312 -52.910156 39.019531 -53.179688 40.78125 -53.640625 C 42.539062 -54.097656 43.957031 -54.75 45.03125 -55.59375 C 46.101562 -56.4375 47.019531 -57.660156 47.78125 -59.265625 C 48.550781 -60.867188 48.9375 -62.820312 48.9375 -65.125 C 48.9375 -67.425781 48.550781 -69.378906 47.78125 -70.984375 C 47.019531 -72.585938 46.101562 -73.8125 45.03125 -74.65625 C 43.957031 -75.5 42.539062 -76.148438 40.78125 -76.609375 C 39.019531 -77.066406 37.445312 -77.332031 36.0625 -77.40625 C 34.6875 -77.488281 33.003906 -77.53125 31.015625 -77.53125 L 28.484375 -77.53125 Z M 28.484375 -52.71875 "/></g></g></g><g fill="#0b3005" fill-opacity="1"><g transform="translate(619.707795, 257.680457)"><g><path d="M 6.890625 -94.765625 L 41.46875 -94.765625 C 51.113281 -94.765625 58.921875 -92.273438 64.890625 -87.296875 C 70.867188 -82.316406 73.859375 -75.078125 73.859375 -65.578125 C 73.859375 -56.085938 70.832031 -48.640625 64.78125 -43.234375 C 58.726562 -37.835938 50.957031 -35.140625 41.46875 -35.140625 L 28.484375 -35.140625 L 28.484375 0 L 6.890625 0 Z M 28.484375 -52.375 L 34.578125 -52.375 C 39.398438 -52.375 43.359375 -53.347656 46.453125 -55.296875 C 49.554688 -57.253906 51.109375 -60.453125 51.109375 -64.890625 C 51.109375 -69.410156 49.554688 -72.644531 46.453125 -74.59375 C 43.359375 -76.550781 39.398438 -77.53125 34.578125 -77.53125 L 28.484375 -77.53125 Z M 28.484375 -52.375 "/></g></g></g><g fill="#0b3005" fill-opacity="1"><g transform="translate(706.859574, 257.680457)"><g><path d="M 6.890625 -94.765625 L 40.78125 -94.765625 C 49.882812 -94.765625 57.304688 -92.332031 63.046875 -87.46875 C 68.796875 -82.601562 71.671875 -75.65625 71.671875 -66.625 C 71.671875 -59.65625 69.925781 -53.8125 66.4375 -49.09375 C 62.957031 -44.382812 58.234375 -41.078125 52.265625 -39.171875 L 84.875 0 L 57.421875 0 L 28.484375 -37.4375 L 28.484375 0 L 6.890625 0 Z M 28.484375 -52.71875 L 31.015625 -52.71875 C 33.003906 -52.71875 34.6875 -52.753906 36.0625 -52.828125 C 37.445312 -52.910156 39.019531 -53.179688 40.78125 -53.640625 C 42.539062 -54.097656 43.957031 -54.75 45.03125 -55.59375 C 46.101562 -56.4375 47.019531 -57.660156 47.78125 -59.265625 C 48.550781 -60.867188 48.9375 -62.820312 48.9375 -65.125 C 48.9375 -67.425781 48.550781 -69.378906 47.78125 -70.984375 C 47.019531 -72.585938 46.101562 -73.8125 45.03125 -74.65625 C 43.957031 -75.5 42.539062 -76.148438 40.78125 -76.609375 C 39.019531 -77.066406 37.445312 -77.332031 36.0625 -77.40625 C 34.6875 -77.488281 33.003906 -77.53125 31.015625 -77.53125 L 28.484375 -77.53125 Z M 28.484375 -52.71875 "/></g></g></g><g fill="#0b3005" fill-opacity="1"><g transform="translate(799.752093, 257.680457)"><g><path d="M 28.484375 -94.765625 L 28.484375 0 L 6.890625 0 L 6.890625 -94.765625 Z M 28.484375 -94.765625 "/></g></g></g><g fill="#0b3005" fill-opacity="1"><g transform="translate(845.800264, 257.680457)"><g><path d="M 41.8125 -96.484375 C 46.9375 -96.484375 51.945312 -95.734375 56.84375 -94.234375 C 61.75 -92.742188 65.390625 -91.269531 67.765625 -89.8125 L 71.21875 -87.515625 L 62.484375 -70.296875 C 61.796875 -70.753906 60.835938 -71.347656 59.609375 -72.078125 C 58.390625 -72.804688 56.09375 -73.78125 52.71875 -75 C 49.351562 -76.226562 46.210938 -76.84375 43.296875 -76.84375 C 39.703125 -76.84375 36.925781 -76.078125 34.96875 -74.546875 C 33.019531 -73.015625 32.046875 -70.945312 32.046875 -68.34375 C 32.046875 -67.039062 32.503906 -65.832031 33.421875 -64.71875 C 34.335938 -63.613281 35.90625 -62.425781 38.125 -61.15625 C 40.351562 -59.894531 42.304688 -58.878906 43.984375 -58.109375 C 45.671875 -57.347656 48.273438 -56.203125 51.796875 -54.671875 C 57.921875 -52.066406 63.144531 -48.523438 67.46875 -44.046875 C 71.800781 -39.566406 73.96875 -34.492188 73.96875 -28.828125 C 73.96875 -23.390625 72.988281 -18.640625 71.03125 -14.578125 C 69.082031 -10.523438 66.40625 -7.347656 63 -5.046875 C 59.59375 -2.753906 55.820312 -1.054688 51.6875 0.046875 C 47.550781 1.160156 43.070312 1.71875 38.25 1.71875 C 34.113281 1.71875 30.050781 1.296875 26.0625 0.453125 C 22.082031 -0.378906 18.753906 -1.425781 16.078125 -2.6875 C 13.398438 -3.957031 10.988281 -5.203125 8.84375 -6.421875 C 6.695312 -7.648438 5.128906 -8.6875 4.140625 -9.53125 L 2.640625 -10.796875 L 13.4375 -28.9375 C 14.351562 -28.175781 15.613281 -27.203125 17.21875 -26.015625 C 18.832031 -24.828125 21.6875 -23.238281 25.78125 -21.25 C 29.882812 -19.257812 33.503906 -18.265625 36.640625 -18.265625 C 45.753906 -18.265625 50.3125 -21.363281 50.3125 -27.5625 C 50.3125 -28.863281 49.984375 -30.066406 49.328125 -31.171875 C 48.679688 -32.285156 47.535156 -33.398438 45.890625 -34.515625 C 44.242188 -35.628906 42.785156 -36.507812 41.515625 -37.15625 C 40.253906 -37.8125 38.1875 -38.804688 35.3125 -40.140625 C 32.445312 -41.484375 30.320312 -42.5 28.9375 -43.1875 C 23.195312 -46.019531 18.753906 -49.5625 15.609375 -53.8125 C 12.472656 -58.0625 10.90625 -62.632812 10.90625 -67.53125 C 10.90625 -76.03125 14.046875 -82.976562 20.328125 -88.375 C 26.609375 -93.78125 33.769531 -96.484375 41.8125 -96.484375 Z M 41.8125 -96.484375 "/></g></g></g><g fill="#0b3005" fill-opacity="1"><g transform="translate(933.641002, 257.680457)"><g><path d="M 61.109375 -94.765625 L 61.109375 -75.8125 L 28.484375 -75.8125 L 28.484375 -56.96875 L 59.734375 -56.96875 L 59.734375 -38.015625 L 28.484375 -38.015625 L 28.484375 -18.953125 L 61.109375 -18.953125 L 61.109375 0 L 6.890625 0 L 6.890625 -94.765625 Z M 61.109375 -94.765625 "/></g></g></g><g fill="#0b3005" fill-opacity="1"><g transform="translate(193.925782, 121.121756)"><g><path d="M 85.21875 0 L 80.75 -56.171875 L 80.171875 -56.171875 L 60.765625 -0.578125 L 47.890625 -0.578125 L 28.484375 -56.171875 L 27.90625 -56.171875 L 23.4375 0 L 1.84375 0 L 10.34375 -94.765625 L 33.3125 -94.765625 L 54.328125 -40.078125 L 75.34375 -94.765625 L 98.3125 -94.765625 L 106.8125 0 Z M 85.21875 0 "/></g></g></g><g fill="#0b3005" fill-opacity="1"><g transform="translate(313.225709, 121.121756)"><g><path d="M 61.109375 -94.765625 L 61.109375 -75.8125 L 28.484375 -75.8125 L 28.484375 -56.96875 L 59.734375 -56.96875 L 59.734375 -38.015625 L 28.484375 -38.015625 L 28.484375 -18.953125 L 61.109375 -18.953125 L 61.109375 0 L 6.890625 0 L 6.890625 -94.765625 Z M 61.109375 -94.765625 "/></g></g></g><g fill="#0b3005" fill-opacity="1"><g transform="translate(390.503417, 121.121756)"><g><path d="M 28.484375 -94.765625 L 28.484375 -18.953125 L 61.109375 -18.953125 L 61.109375 0 L 6.890625 0 L 6.890625 -94.765625 Z M 28.484375 -94.765625 "/></g></g></g><g fill="#0b3005" fill-opacity="1"><g transform="translate(466.058936, 121.121756)"><g><path d="M -3.453125 -94.765625 L 22.515625 -94.765625 L 42.265625 -64.4375 L 62.03125 -94.765625 L 87.984375 -94.765625 L 53.0625 -42.5 L 53.0625 0 L 31.46875 0 L 31.46875 -42.5 Z M -3.453125 -94.765625 "/></g></g></g><g fill="#0b3005" fill-opacity="1"><g transform="translate(561.247813, 121.121756)"><g><path d="M 41.8125 -96.484375 C 46.9375 -96.484375 51.945312 -95.734375 56.84375 -94.234375 C 61.75 -92.742188 65.390625 -91.269531 67.765625 -89.8125 L 71.21875 -87.515625 L 62.484375 -70.296875 C 61.796875 -70.753906 60.835938 -71.347656 59.609375 -72.078125 C 58.390625 -72.804688 56.09375 -73.78125 52.71875 -75 C 49.351562 -76.226562 46.210938 -76.84375 43.296875 -76.84375 C 39.703125 -76.84375 36.925781 -76.078125 34.96875 -74.546875 C 33.019531 -73.015625 32.046875 -70.945312 32.046875 -68.34375 C 32.046875 -67.039062 32.503906 -65.832031 33.421875 -64.71875 C 34.335938 -63.613281 35.90625 -62.425781 38.125 -61.15625 C 40.351562 -59.894531 42.304688 -58.878906 43.984375 -58.109375 C 45.671875 -57.347656 48.273438 -56.203125 51.796875 -54.671875 C 57.921875 -52.066406 63.144531 -48.523438 67.46875 -44.046875 C 71.800781 -39.566406 73.96875 -34.492188 73.96875 -28.828125 C 73.96875 -23.390625 72.988281 -18.640625 71.03125 -14.578125 C 69.082031 -10.523438 66.40625 -7.347656 63 -5.046875 C 59.59375 -2.753906 55.820312 -1.054688 51.6875 0.046875 C 47.550781 1.160156 43.070312 1.71875 38.25 1.71875 C 34.113281 1.71875 30.050781 1.296875 26.0625 0.453125 C 22.082031 -0.378906 18.753906 -1.425781 16.078125 -2.6875 C 13.398438 -3.957031 10.988281 -5.203125 8.84375 -6.421875 C 6.695312 -7.648438 5.128906 -8.6875 4.140625 -9.53125 L 2.640625 -10.796875 L 13.4375 -28.9375 C 14.351562 -28.175781 15.613281 -27.203125 17.21875 -26.015625 C 18.832031 -24.828125 21.6875 -23.238281 25.78125 -21.25 C 29.882812 -19.257812 33.503906 -18.265625 36.640625 -18.265625 C 45.753906 -18.265625 50.3125 -21.363281 50.3125 -27.5625 C 50.3125 -28.863281 49.984375 -30.066406 49.328125 -31.171875 C 48.679688 -32.285156 47.535156 -33.398438 45.890625 -34.515625 C 44.242188 -35.628906 42.785156 -36.507812 41.515625 -37.15625 C 40.253906 -37.8125 38.1875 -38.804688 35.3125 -40.140625 C 32.445312 -41.484375 30.320312 -42.5 28.9375 -43.1875 C 23.195312 -46.019531 18.753906 -49.5625 15.609375 -53.8125 C 12.472656 -58.0625 10.90625 -62.632812 10.90625 -67.53125 C 10.90625 -76.03125 14.046875 -82.976562 20.328125 -88.375 C 26.609375 -93.78125 33.769531 -96.484375 41.8125 -96.484375 Z M 41.8125 -96.484375 "/></g></g></g><g fill="#0b3005" fill-opacity="1"><g transform="translate(649.088551, 121.121756)"><g><path d="M 2.640625 -47.4375 C 2.640625 -61.144531 7.3125 -72.742188 16.65625 -82.234375 C 26 -91.734375 37.253906 -96.484375 50.421875 -96.484375 C 63.671875 -96.484375 74.925781 -91.753906 84.1875 -82.296875 C 93.457031 -72.835938 98.09375 -61.21875 98.09375 -47.4375 C 98.09375 -33.570312 93.535156 -21.910156 84.421875 -12.453125 C 75.304688 -3.003906 63.972656 1.71875 50.421875 1.71875 C 36.566406 1.71875 25.140625 -2.96875 16.140625 -12.34375 C 7.140625 -21.726562 2.640625 -33.425781 2.640625 -47.4375 Z M 25.953125 -47.4375 C 25.953125 -42.457031 26.71875 -37.921875 28.25 -33.828125 C 29.78125 -29.734375 32.457031 -26.269531 36.28125 -23.4375 C 40.113281 -20.601562 44.828125 -19.1875 50.421875 -19.1875 C 58.460938 -19.1875 64.53125 -21.941406 68.625 -27.453125 C 72.71875 -32.960938 74.765625 -39.625 74.765625 -47.4375 C 74.765625 -55.164062 72.675781 -61.804688 68.5 -67.359375 C 64.332031 -72.910156 58.304688 -75.6875 50.421875 -75.6875 C 42.609375 -75.6875 36.578125 -72.910156 32.328125 -67.359375 C 28.078125 -61.804688 25.953125 -55.164062 25.953125 -47.4375 Z M 25.953125 -47.4375 "/></g></g></g><g fill="#0b3005" fill-opacity="1"><g transform="translate(760.466244, 121.121756)"><g><path d="M 28.484375 -58.8125 L 28.484375 0 L 6.890625 0 L 6.890625 -94.765625 L 28.484375 -94.765625 L 66.15625 -35.953125 L 66.390625 -35.953125 L 66.390625 -94.765625 L 87.984375 -94.765625 L 87.984375 0 L 66.390625 0 L 28.71875 -58.8125 Z M 28.484375 -58.8125 "/></g></g></g></svg>